<?xml version="1.0" standalone="no"?>
<!DOCTYPE svg PUBLIC "-//W3C//DTD SVG 20010904//EN"
 "http://www.w3.org/TR/2001/REC-SVG-20010904/DTD/svg10.dtd">
<svg version="1.0" xmlns="http://www.w3.org/2000/svg"
 width="173.000000pt" height="173.000000pt" viewBox="0 0 173.000000 173.000000"
 preserveAspectRatio="xMidYMid meet">
<metadata>
Created by potrace 1.11, written by Peter Selinger 2001-2013
</metadata>
<g transform="translate(0.000000,173.000000) scale(0.100000,-0.100000)"
fill="#000000" stroke="none">
<path d="M764 1659 c-46 -13 -121 -85 -151 -142 -32 -64 -41 -153 -21 -195 15
-29 15 -30 -44 -103 -113 -141 -217 -354 -218 -444 0 -102 49 -204 126 -257
49 -36 55 -48 21 -48 -74 0 -145 -119 -114 -192 8 -18 24 -42 36 -52 17 -15
21 -30 21 -76 0 -31 -6 -78 -14 -103 l-14 -47 439 0 439 0 0 28 1 27 15 -27
c14 -27 18 -28 94 -28 l79 0 -34 74 c-19 40 -37 92 -41 114 -5 35 -3 46 19 72
49 57 44 136 -10 201 -27 31 -91 69 -118 69 -12 0 -10 8 9 37 96 145 70 347
-71 560 -55 84 -156 185 -220 223 -58 34 -60 36 -50 63 15 45 4 153 -19 184
-43 57 -101 80 -160 62z m93 -506 c-34 -2 -60 -9 -62 -16 -2 -7 -11 -38 -21
-69 l-17 -58 -46 0 c-25 0 -41 4 -35 8 7 4 17 26 24 50 6 24 14 50 17 58 3 8
1 14 -5 14 -5 0 -17 -26 -26 -57 -23 -83 -27 -86 -74 -78 -34 5 -43 13 -57 42
-13 26 -14 38 -5 47 8 8 10 7 6 -4 -8 -21 15 -62 41 -71 20 -7 23 -2 41 52 10
32 15 59 10 59 -5 0 -24 -7 -44 -15 -19 -8 -32 -10 -29 -5 15 25 141 48 260
47 64 -1 68 -2 22 -4z m103 -36 c28 -50 -16 -79 -135 -91 -58 -5 -57 -5 15 9
41 8 85 19 98 24 28 13 28 45 1 72 -12 12 -15 19 -8 17 8 -3 21 -17 29 -31z
m-180 -379 l-1 -63 -19 24 c-22 26 -27 87 -7 94 25 11 27 6 27 -55z"/>
</g>
</svg>
